<svg id="グループ_4476" data-name="グループ 4476" xmlns="http://www.w3.org/2000/svg" width="197.92" height="40.11" viewBox="0 0 197.92 40.11"><defs><style>.cls-1{fill:#fff;}</style></defs><path id="パス_6042" data-name="パス 6042" class="cls-1" d="M197.9,20.33c0,1.36-.2,2.71-.31,4.07-.19,2.18-1.48,3.92-2.3,5.85a16.87,16.87,0,0,1-1.89,3.59c-1.24,1.65-2.44,3.37-4.66,4-1.52.46-2.87,1.47-4.61,1.2-1.42-.23-2.87-.34-4.31-.54-2.39-.32-4-2.1-5.24-3.74A17.83,17.83,0,0,1,170.7,25c-.09-1.72-.41-3.43-.41-5.15A15.5,15.5,0,0,1,170.8,16a25.77,25.77,0,0,1,1.56-4.5c1.19-2.52,2.33-5.1,4.77-6.76,1.15-.79,2.19-1.92,3.46-2.33a14.78,14.78,0,0,1,4.3-.19c.29,0,.6.22.86.16,1.91-.44,3.42.5,4.94,1.39a17.74,17.74,0,0,1,5.56,5.68,13.14,13.14,0,0,1,1.14,3.22A66.08,66.08,0,0,1,197.9,20.33Zm-11.16-2.11c-.18-1.43-.52-2.49-2.31-2.5a3.19,3.19,0,0,0-1.31.75c-1.3,2.11-1,4.69.16,5.8a2,2,0,0,0,1.94.29C187.37,21.33,186.86,18.26,186.74,18.22Z" transform="translate(0.02 0)"/><path id="パス_6043" data-name="パス 6043" class="cls-1" d="M27.68,31.82c-.65,2.08-.88,3.82-3,4.71a4.22,4.22,0,0,1-3.18-.08c-2.2-.89-3.08,0-5.23.39a19.16,19.16,0,0,1-4.77.57c-2-.17-3.42-1.54-4.91-2.9a25.48,25.48,0,0,1-4.25-5.34A16.12,16.12,0,0,1,0,19.71a18.24,18.24,0,0,1,1.17-6.16,41.28,41.28,0,0,1,3.94-8A12.68,12.68,0,0,1,13.22.21a8.73,8.73,0,0,1,6.57,1.16c1,.63,2.63,1.63,3.1,2.73a5.44,5.44,0,0,1,.52,3.54,24.9,24.9,0,0,1-.88,2.78c-1.14,1.54-3.52,1.77-4.71,3-1.74,1.75-1.42,3.26-2,5.89a7.24,7.24,0,0,0,1.58,6.3c.32.4,1.74.3,2.38-.06a2.43,2.43,0,0,0,.68-2c-.19-1.19-.61-2.28-.15-3.54a4.11,4.11,0,0,1,3.21-2.9c1.3-.28,2.59-.59,3.9-.82,1-.17,2.67,1.17,3,2.15A5.25,5.25,0,0,1,30.25,22C29.8,23,28.34,29.72,27.68,31.82Z" transform="translate(0.02 0)"/><path id="パス_6044" data-name="パス 6044" class="cls-1" d="M67.87,21.3a37.76,37.76,0,0,1,1.36-6.57c1.11-2.92,2.22-5.88,4.63-8.19,1.72-1.66,3.28-3.41,5.56-4.3C82.51,1,85.74.36,88.77,2a8.93,8.93,0,0,1,4.71,5.31c.23.78.5,1.54.8,2.28a18.21,18.21,0,0,1,1.22,8.23c-.07,1-.15,1.94-.23,2.92,0,.18-.09.37-.09.56,0,2.91-1.34,5.49-2.53,8a12.56,12.56,0,0,1-7.85,7.06h-.28c-2.67,0-5.39.37-8,0a9.49,9.49,0,0,1-6.2-3.78C67.82,29.15,67.6,25.45,67.87,21.3Zm14.23.21A6.52,6.52,0,0,0,83.54,16a2.22,2.22,0,0,0-.09-.37,1.23,1.23,0,0,0-.23-.4,1.21,1.21,0,0,0-1.71-.13h0a1.16,1.16,0,0,0-.25.29h0c-.47.77-.84,1.6-1.3,2.38-.56.94,0,3.52,1,4A1.21,1.21,0,0,0,82,21.65Z" transform="translate(0.02 0)"/><path id="パス_6045" data-name="パス 6045" class="cls-1" d="M124,2.37c2.68.06,3.81,1.1,4.73,3.45a8.76,8.76,0,0,1-.2,6.76,18.43,18.43,0,0,1-1.8,4c-1.1,1.94-2.39,3.78-3.53,5.7a3.08,3.08,0,0,0-.56,1.93c.08.35,1.06.55,1.66.72,1.06.28,2.16.42,3.21.74,1.58.49,1.73,2.17,2,3.29.59,2.68.11,5.45-2.43,7-2,1.23-4,2.54-6.53,2.7a81.69,81.69,0,0,1-8.28.25c-1.43-.3-3.18-.14-4.21-.93-1.36-1-3.19-2-3.45-4.1a14.55,14.55,0,0,1-.53-2.69,14.21,14.21,0,0,1,1-3.49c1.12-3.05,5-7,7-9.58,1.2-1.54,1.47-3-.46-2.83-7.43.6-8.3-5.54-7.15-8.48a4.34,4.34,0,0,1,1.29-1.76c1.54-1.18,2.58-1.92,8-2.39C112.88,2.73,119.66,2.27,124,2.37Z" transform="translate(0.02 0)"/><path id="パス_6046" data-name="パス 6046" class="cls-1" d="M163.24,21.53a30.48,30.48,0,0,1,.71,4.36c.06,2.67,1,6.43-.45,8.87-.8,1.36-4.41,3.22-5.9,2.81a3.13,3.13,0,0,1-1.55-1.1,54,54,0,0,1-3-5.93c-.67-1.33-1.3-1.07-3.84-.64-.47.08-.88.79-1.09,1.31-1,2.37-.66,3.6-2.42,5.34-1.37,1.36-6.2,1.3-7.44-.47a3.67,3.67,0,0,0-.36-.6,4.94,4.94,0,0,1-1-4.89c.49-1.66.61-3.44,1-5.15.24-1.19.6-2.35.91-3.52s.57-2.62,1-3.88c1-2.72,2-5.42,3.1-8.1.55-1.34,1.26-2.62,1.9-3.93,1.33-2.7,5.86-3.91,8.65-2.82a9.35,9.35,0,0,1,5.46,5.71c.77,1.89,1.6,3.75,2.39,5.63a31,31,0,0,1,1.28,3.36c.32,1.19.44,2.43.65,3.65Zm-11.47-5.64a.63.63,0,0,0-.88,0,.56.56,0,0,0-.16.24,37,37,0,0,0-1.21,3.69c-.18.73-.14,1.86,1,1.85.92,0,2.84-.1,2.83-.67A6.73,6.73,0,0,0,151.77,15.89Z" transform="translate(0.02 0)"/><path id="パス_6047" data-name="パス 6047" class="cls-1" d="M59.94,18.05c-.48,1.6-.93,3.22-1.54,4.78-.85,2.14-1.83,4.24-2.78,6.34-1.07,2.36-2.12,4.73-3.28,7A7.35,7.35,0,0,1,50.79,38c-.4.38-.93.62-1.3,1a3.58,3.58,0,0,1-5,.18c-.46-.5-1.34-1.25-1.4-2a9.15,9.15,0,0,1,.14-3.38,23,23,0,0,1,1.38-3.38c.9-3.1,0-3.2-.56-4.34a38.12,38.12,0,0,0-2.82-3.52c-1.49-1.94-2.56-2.14-3.6-4.42s-1.44-4-2.13-5.86A9.19,9.19,0,0,1,35,9.2c.51-1.75,1-3.65,2.74-4.64,2-1.1,3.14-1.6,5.15-.4a17,17,0,0,1,2.63,2.52c1,1.28,1.88,1.65,2.54,2.66a12.14,12.14,0,0,0,1.8,2.18c.19.2.92,1.36,1.86-1.15.19-.49.76-1.79,1.1-2.69C54.45,4.1,54,4,55.21,2.3a4,4,0,0,1,5.57-.59,3.65,3.65,0,0,1,.67.69,6.71,6.71,0,0,1,1,3.43C62.51,7,60.8,15.19,59.94,18.05Z" transform="translate(0.02 0)"/></svg>